<?xml version="1.0" standalone="no"?>
<!DOCTYPE svg PUBLIC "-//W3C//DTD SVG 20010904//EN"
 "http://www.w3.org/TR/2001/REC-SVG-20010904/DTD/svg10.dtd">
<svg version="1.0" xmlns="http://www.w3.org/2000/svg"
 width="1046.000000pt" height="1046.000000pt" viewBox="0 0 1046.000000 1046.000000"
 preserveAspectRatio="xMidYMid meet">
<metadata>
Created by potrace 1.11, written by Peter Selinger 2001-2013
</metadata>
<g transform="translate(0.000000,1046.000000) scale(0.100000,-0.100000)"
fill="#000000" stroke="none">
<path d="M4970 10443 c-887 -48 -1696 -295 -2445 -746 -837 -504 -1531 -1258
-1974 -2144 -276 -552 -440 -1117 -518 -1778 -25 -216 -25 -884 0 -1100 99
-838 348 -1554 780 -2240 737 -1170 1951 -2022 3292 -2310 1504 -323 3036 10
4260 925 277 207 642 552 854 805 662 793 1066 1715 1190 2715 201 1615 -343
3205 -1489 4350 -827 828 -1895 1349 -3054 1490 -281 34 -637 47 -896 33z
m-487 -971 c96 -48 153 -122 176 -232 9 -42 11 -624 9 -2395 l-4 -2340 -21
-130 c-65 -388 -175 -634 -381 -847 -201 -208 -488 -346 -842 -403 -126 -20
-465 -45 -611 -45 -236 0 -355 79 -379 249 -17 125 24 247 100 297 63 42 122
53 364 70 331 22 491 59 638 148 219 132 327 318 390 676 8 47 13 715 17 2400
l6 2335 22 47 c41 89 126 162 226 194 26 9 76 13 133 11 79 -2 100 -7 157 -35z
m1725 -2217 l867 -290 -1145 -3 c-630 -1 -1151 0 -1157 3 -10 3 -13 244 -12
1157 l1 1153 289 -865 289 -865 868 -290z m567 -384 c596 -88 977 -316 1169
-700 170 -338 181 -818 26 -1148 -122 -260 -339 -468 -616 -588 -43 -19 -72
-36 -64 -38 471 -142 759 -433 865 -871 78 -322 43 -712 -90 -993 -61 -130
-131 -227 -238 -330 -198 -191 -448 -313 -769 -377 -250 -50 -281 -51 -1413
-51 l-1060 0 -53 24 c-61 27 -131 100 -152 157 -12 32 -15 172 -18 806 l-3
768 60 72 c134 164 231 376 286 623 49 225 49 202 52 1473 l4 1193 967 -4
c672 -3 991 -7 1047 -16z"/>
<path d="M4960 5506 l0 -886 749 0 c875 0 967 6 1186 77 374 121 571 378 591
773 23 437 -188 737 -601 854 -210 60 -208 60 -1102 63 l-823 4 0 -885z"/>
<path d="M4960 3196 l0 -926 798 0 c784 0 932 5 1104 35 249 43 463 153 574
294 119 151 174 335 174 580 0 521 -250 808 -800 917 -75 15 -189 18 -967 21
l-883 4 0 -925z"/>
</g>
</svg>
