<!-- Generated by IcoMoon.io -->
<svg version="1.1" xmlns="http://www.w3.org/2000/svg" width="764" height="1024" viewBox="0 0 764 1024">
<title></title>
<g id="icomoon-ignore">
</g>
<path fill="#000" d="M15.519 843.472c-9.475-6.658-15.59-17.54-15.59-29.85 0-0.802 0.026-1.597 0.077-2.386l-0.006 0.107c0-26.188 14.67-39.767 44.132-40.494l35.766-2.425c40.494-2.304 70.683-14.913 90.446-37.463s29.825-59.044 29.825-109.117v-571.772c-0.016-0.47-0.026-1.022-0.026-1.576 0-26.784 21.713-48.496 48.496-48.496 0.009 0 0.018 0 0.027 0h-0.001c0.88-0.058 1.909-0.092 2.945-0.092 13.044 0 24.858 5.269 33.429 13.794l-0.002-0.002c8.154 8.961 13.147 20.925 13.147 34.054 0 0.815-0.019 1.626-0.057 2.432l0.004-0.114v572.984q0 109.117-50.072 165.009t-151.551 61.348l-35.766 2.425c-3.219 0.529-6.929 0.832-10.71 0.832-12.701 0-24.605-3.414-34.843-9.375l0.33 0.178z"></path>
<path fill="#000" d="M731.688 734.234c-22.401-28.448-53.666-49.026-89.588-57.61l-1.1-0.222c32.431-11.567 59.382-31.832 78.854-57.994l0.316-0.444c17.709-25.031 28.307-56.186 28.307-89.816 0-1.5-0.021-2.996-0.063-4.486l0.005 0.219q0-84.869-57.468-130.455t-161.978-45.829h-219.082v275.459q0 109.117-50.072 165.009c-0.849 0.97-1.697 1.697-2.546 2.546v194.955c-0.027 0.523-0.042 1.135-0.042 1.751 0 10.252 4.242 19.513 11.066 26.125l0.010 0.009c7.157 6.569 16.74 10.595 27.263 10.595 0.688 0 1.372-0.017 2.051-0.051l-0.096 0.004h241.754q107.541 0 165.979-47.526t58.559-136.638c0.076-1.891 0.119-4.111 0.119-6.34 0-37.306-12.096-71.786-32.579-99.734l0.331 0.473zM334.988 412.825h181.861q153.491 0 153.491 115.179c0.134 2.004 0.21 4.344 0.21 6.702 0 33.163-15.113 62.795-38.827 82.387l-0.18 0.145q-38.555 30.795-114.694 30.674h-181.861zM649.123 929.553q-37.827 29.219-117.482 29.219h-196.653v-245.998h196.653q154.946 0 154.946 125.121 0 62.439-37.463 91.658z"></path>
<path fill="#000" d="M309.892 336.928v-305.163l76.26 228.903 228.903 76.26z"></path>
</svg>
